<?xml version="1.0" encoding="iso-8859-1"?>
<!-- Generator: Adobe Illustrator 19.2.0, SVG Export Plug-In . SVG Version: 6.00 Build 0)  -->
<svg version="1.1" id="Layer_1" xmlns="http://www.w3.org/2000/svg" xmlns:xlink="http://www.w3.org/1999/xlink" x="0px" y="0px"
	 viewBox="0 0 1366 245.073" style="enable-background:new 0 0 1366 245.073;" xml:space="preserve">
<g>
	<path d="M74.878,140.901V208.2h122.051v-67.298H74.878z M98.274,201.088c0,0.735-0.601,1.336-1.336,1.336H79.237
		c-0.734,0-1.336-0.601-1.336-1.336v-4.985c0-0.734,0.601-1.336,1.336-1.336h17.701c0.735,0,1.336,0.601,1.336,1.336V201.088z
		 M98.274,189.117c0,0.735-0.601,1.336-1.336,1.336H79.237c-0.734,0-1.336-0.601-1.336-1.336v-4.985
		c0-0.735,0.601-1.336,1.336-1.336h17.701c0.735,0,1.336,0.601,1.336,1.336V189.117z M98.274,177.146
		c0,0.734-0.601,1.336-1.336,1.336H79.237c-0.734,0-1.336-0.601-1.336-1.336v-4.985c0-0.734,0.601-1.336,1.336-1.336h17.701
		c0.735,0,1.336,0.601,1.336,1.336V177.146z M98.274,165.174c0,0.734-0.601,1.336-1.336,1.336H79.237
		c-0.734,0-1.336-0.601-1.336-1.336v-4.985c0-0.734,0.601-1.336,1.336-1.336h17.701c0.735,0,1.336,0.601,1.336,1.336V165.174z
		 M98.274,153.203c0,0.734-0.601,1.336-1.336,1.336H79.237c-0.734,0-1.336-0.601-1.336-1.336v-4.985
		c0-0.735,0.601-1.336,1.336-1.336h17.701c0.735,0,1.336,0.601,1.336,1.336V153.203z M122.216,201.088
		c0,0.735-0.601,1.336-1.336,1.336h-17.702c-0.734,0-1.336-0.601-1.336-1.336v-4.985c0-0.734,0.601-1.336,1.336-1.336h17.702
		c0.734,0,1.336,0.601,1.336,1.336V201.088z M122.216,189.117c0,0.735-0.601,1.336-1.336,1.336h-17.702
		c-0.734,0-1.336-0.601-1.336-1.336v-4.985c0-0.735,0.601-1.336,1.336-1.336h17.702c0.734,0,1.336,0.601,1.336,1.336V189.117z
		 M122.216,177.146c0,0.734-0.601,1.336-1.336,1.336h-17.702c-0.734,0-1.336-0.601-1.336-1.336v-4.985
		c0-0.734,0.601-1.336,1.336-1.336h17.702c0.734,0,1.336,0.601,1.336,1.336V177.146z M122.216,165.174
		c0,0.734-0.601,1.336-1.336,1.336h-17.702c-0.734,0-1.336-0.601-1.336-1.336v-4.985c0-0.734,0.601-1.336,1.336-1.336h17.702
		c0.734,0,1.336,0.601,1.336,1.336V165.174z M122.216,153.203c0,0.734-0.601,1.336-1.336,1.336h-17.702
		c-0.734,0-1.336-0.601-1.336-1.336v-4.985c0-0.735,0.601-1.336,1.336-1.336h17.702c0.734,0,1.336,0.601,1.336,1.336V153.203z
		 M146.159,201.088c0,0.735-0.601,1.336-1.336,1.336h-17.701c-0.735,0-1.336-0.601-1.336-1.336v-4.985
		c0-0.734,0.601-1.336,1.336-1.336h17.701c0.735,0,1.336,0.601,1.336,1.336V201.088z M146.159,189.117
		c0,0.735-0.601,1.336-1.336,1.336h-17.701c-0.735,0-1.336-0.601-1.336-1.336v-4.985c0-0.735,0.601-1.336,1.336-1.336h17.701
		c0.735,0,1.336,0.601,1.336,1.336V189.117z M146.159,177.146c0,0.734-0.601,1.336-1.336,1.336h-17.701
		c-0.735,0-1.336-0.601-1.336-1.336v-4.985c0-0.734,0.601-1.336,1.336-1.336h17.701c0.735,0,1.336,0.601,1.336,1.336V177.146z
		 M146.159,165.174c0,0.734-0.601,1.336-1.336,1.336h-17.701c-0.735,0-1.336-0.601-1.336-1.336v-4.985
		c0-0.734,0.601-1.336,1.336-1.336h17.701c0.735,0,1.336,0.601,1.336,1.336V165.174z M146.159,153.203
		c0,0.734-0.601,1.336-1.336,1.336h-17.701c-0.735,0-1.336-0.601-1.336-1.336v-4.985c0-0.735,0.601-1.336,1.336-1.336h17.701
		c0.735,0,1.336,0.601,1.336,1.336V153.203z M170.101,201.088c0,0.735-0.601,1.336-1.336,1.336h-17.702
		c-0.734,0-1.336-0.601-1.336-1.336v-4.985c0-0.734,0.601-1.336,1.336-1.336h17.702c0.734,0,1.336,0.601,1.336,1.336V201.088z
		 M170.101,189.117c0,0.735-0.601,1.336-1.336,1.336h-17.702c-0.734,0-1.336-0.601-1.336-1.336v-4.985
		c0-0.735,0.601-1.336,1.336-1.336h17.702c0.734,0,1.336,0.601,1.336,1.336V189.117z M170.101,177.146
		c0,0.734-0.601,1.336-1.336,1.336h-17.702c-0.734,0-1.336-0.601-1.336-1.336v-4.985c0-0.734,0.601-1.336,1.336-1.336h17.702
		c0.734,0,1.336,0.601,1.336,1.336V177.146z M170.101,165.174c0,0.734-0.601,1.336-1.336,1.336h-17.702
		c-0.734,0-1.336-0.601-1.336-1.336v-4.985c0-0.734,0.601-1.336,1.336-1.336h17.702c0.734,0,1.336,0.601,1.336,1.336V165.174z
		 M170.101,153.203c0,0.734-0.601,1.336-1.336,1.336h-17.702c-0.734,0-1.336-0.601-1.336-1.336v-4.985
		c0-0.735,0.601-1.336,1.336-1.336h17.702c0.734,0,1.336,0.601,1.336,1.336V153.203z M194.043,201.088
		c0,0.735-0.601,1.336-1.336,1.336h-17.702c-0.734,0-1.336-0.601-1.336-1.336v-4.985c0-0.734,0.601-1.336,1.336-1.336h17.702
		c0.734,0,1.336,0.601,1.336,1.336V201.088z M194.043,189.117c0,0.735-0.601,1.336-1.336,1.336h-17.702
		c-0.734,0-1.336-0.601-1.336-1.336v-4.985c0-0.735,0.601-1.336,1.336-1.336h17.702c0.734,0,1.336,0.601,1.336,1.336V189.117z
		 M194.043,177.146c0,0.734-0.601,1.336-1.336,1.336h-17.702c-0.734,0-1.336-0.601-1.336-1.336v-4.985
		c0-0.734,0.601-1.336,1.336-1.336h17.702c0.734,0,1.336,0.601,1.336,1.336V177.146z M194.043,165.174
		c0,0.734-0.601,1.336-1.336,1.336h-17.702c-0.734,0-1.336-0.601-1.336-1.336v-4.985c0-0.734,0.601-1.336,1.336-1.336h17.702
		c0.734,0,1.336,0.601,1.336,1.336V165.174z M194.043,153.203c0,0.734-0.601,1.336-1.336,1.336h-17.702
		c-0.734,0-1.336-0.601-1.336-1.336v-4.985c0-0.735,0.601-1.336,1.336-1.336h17.702c0.734,0,1.336,0.601,1.336,1.336V153.203z"/>
	<path d="M377.795,110.597V208.2h38.528v-97.603H377.795z M386.576,193.607c0,0.49-0.401,0.89-0.89,0.89h-3.434
		c-0.49,0-0.89-0.401-0.89-0.89v-5.173c0-0.49,0.401-0.89,0.89-0.89h3.434c0.49,0,0.89,0.401,0.89,0.89V193.607z M386.576,181.684
		c0,0.49-0.401,0.89-0.89,0.89h-3.434c-0.49,0-0.89-0.401-0.89-0.89v-5.173c0-0.49,0.401-0.89,0.89-0.89h3.434
		c0.49,0,0.89,0.401,0.89,0.89V181.684z M386.576,169.76c0,0.49-0.401,0.89-0.89,0.89h-3.434c-0.49,0-0.89-0.401-0.89-0.89v-5.173
		c0-0.49,0.401-0.89,0.89-0.89h3.434c0.49,0,0.89,0.401,0.89,0.89V169.76z M386.576,157.836c0,0.49-0.401,0.89-0.89,0.89h-3.434
		c-0.49,0-0.89-0.401-0.89-0.89v-5.173c0-0.49,0.401-0.89,0.89-0.89h3.434c0.49,0,0.89,0.401,0.89,0.89V157.836z M386.576,145.913
		c0,0.49-0.401,0.89-0.89,0.89h-3.434c-0.49,0-0.89-0.401-0.89-0.89v-5.173c0-0.49,0.401-0.89,0.89-0.89h3.434
		c0.49,0,0.89,0.401,0.89,0.89V145.913z M386.576,133.989c0,0.49-0.401,0.89-0.89,0.89h-3.434c-0.49,0-0.89-0.401-0.89-0.89v-5.173
		c0-0.49,0.401-0.89,0.89-0.89h3.434c0.49,0,0.89,0.401,0.89,0.89V133.989z M386.576,122.066c0,0.49-0.401,0.89-0.89,0.89h-3.434
		c-0.49,0-0.89-0.401-0.89-0.89v-5.173c0-0.49,0.401-0.89,0.89-0.89h3.434c0.49,0,0.89,0.401,0.89,0.89V122.066z M395.303,193.607
		c0,0.49-0.401,0.89-0.89,0.89h-3.434c-0.49,0-0.89-0.401-0.89-0.89v-5.173c0-0.49,0.401-0.89,0.89-0.89h3.434
		c0.49,0,0.89,0.401,0.89,0.89V193.607z M395.303,181.684c0,0.49-0.401,0.89-0.89,0.89h-3.434c-0.49,0-0.89-0.401-0.89-0.89v-5.173
		c0-0.49,0.401-0.89,0.89-0.89h3.434c0.49,0,0.89,0.401,0.89,0.89V181.684z M395.303,169.76c0,0.49-0.401,0.89-0.89,0.89h-3.434
		c-0.49,0-0.89-0.401-0.89-0.89v-5.173c0-0.49,0.401-0.89,0.89-0.89h3.434c0.49,0,0.89,0.401,0.89,0.89V169.76z M395.303,157.836
		c0,0.49-0.401,0.89-0.89,0.89h-3.434c-0.49,0-0.89-0.401-0.89-0.89v-5.173c0-0.49,0.401-0.89,0.89-0.89h3.434
		c0.49,0,0.89,0.401,0.89,0.89V157.836z M395.303,145.913c0,0.49-0.401,0.89-0.89,0.89h-3.434c-0.49,0-0.89-0.401-0.89-0.89v-5.173
		c0-0.49,0.401-0.89,0.89-0.89h3.434c0.49,0,0.89,0.401,0.89,0.89V145.913z M395.303,133.989c0,0.49-0.401,0.89-0.89,0.89h-3.434
		c-0.49,0-0.89-0.401-0.89-0.89v-5.173c0-0.49,0.401-0.89,0.89-0.89h3.434c0.49,0,0.89,0.401,0.89,0.89V133.989z M395.303,122.066
		c0,0.49-0.401,0.89-0.89,0.89h-3.434c-0.49,0-0.89-0.401-0.89-0.89v-5.173c0-0.49,0.401-0.89,0.89-0.89h3.434
		c0.49,0,0.89,0.401,0.89,0.89V122.066z M404.03,193.607c0,0.49-0.401,0.89-0.89,0.89h-3.435c-0.49,0-0.89-0.401-0.89-0.89v-5.173
		c0-0.49,0.401-0.89,0.89-0.89h3.435c0.49,0,0.89,0.401,0.89,0.89V193.607z M404.03,181.684c0,0.49-0.401,0.89-0.89,0.89h-3.435
		c-0.49,0-0.89-0.401-0.89-0.89v-5.173c0-0.49,0.401-0.89,0.89-0.89h3.435c0.49,0,0.89,0.401,0.89,0.89V181.684z M404.03,169.76
		c0,0.49-0.401,0.89-0.89,0.89h-3.435c-0.49,0-0.89-0.401-0.89-0.89v-5.173c0-0.49,0.401-0.89,0.89-0.89h3.435
		c0.49,0,0.89,0.401,0.89,0.89V169.76z M404.03,157.836c0,0.49-0.401,0.89-0.89,0.89h-3.435c-0.49,0-0.89-0.401-0.89-0.89v-5.173
		c0-0.49,0.401-0.89,0.89-0.89h3.435c0.49,0,0.89,0.401,0.89,0.89V157.836z M404.03,145.913c0,0.49-0.401,0.89-0.89,0.89h-3.435
		c-0.49,0-0.89-0.401-0.89-0.89v-5.173c0-0.49,0.401-0.89,0.89-0.89h3.435c0.49,0,0.89,0.401,0.89,0.89V145.913z M404.03,133.989
		c0,0.49-0.401,0.89-0.89,0.89h-3.435c-0.49,0-0.89-0.401-0.89-0.89v-5.173c0-0.49,0.401-0.89,0.89-0.89h3.435
		c0.49,0,0.89,0.401,0.89,0.89V133.989z M404.03,122.066c0,0.49-0.401,0.89-0.89,0.89h-3.435c-0.49,0-0.89-0.401-0.89-0.89v-5.173
		c0-0.49,0.401-0.89,0.89-0.89h3.435c0.49,0,0.89,0.401,0.89,0.89V122.066z M412.757,193.607c0,0.49-0.401,0.89-0.89,0.89h-3.435
		c-0.49,0-0.89-0.401-0.89-0.89v-5.173c0-0.49,0.401-0.89,0.89-0.89h3.435c0.49,0,0.89,0.401,0.89,0.89V193.607z M412.757,181.684
		c0,0.49-0.401,0.89-0.89,0.89h-3.435c-0.49,0-0.89-0.401-0.89-0.89v-5.173c0-0.49,0.401-0.89,0.89-0.89h3.435
		c0.49,0,0.89,0.401,0.89,0.89V181.684z M412.757,169.76c0,0.49-0.401,0.89-0.89,0.89h-3.435c-0.49,0-0.89-0.401-0.89-0.89v-5.173
		c0-0.49,0.401-0.89,0.89-0.89h3.435c0.49,0,0.89,0.401,0.89,0.89V169.76z M412.757,157.836c0,0.49-0.401,0.89-0.89,0.89h-3.435
		c-0.49,0-0.89-0.401-0.89-0.89v-5.173c0-0.49,0.401-0.89,0.89-0.89h3.435c0.49,0,0.89,0.401,0.89,0.89V157.836z M412.757,145.913
		c0,0.49-0.401,0.89-0.89,0.89h-3.435c-0.49,0-0.89-0.401-0.89-0.89v-5.173c0-0.49,0.401-0.89,0.89-0.89h3.435
		c0.49,0,0.89,0.401,0.89,0.89V145.913z M412.757,133.989c0,0.49-0.401,0.89-0.89,0.89h-3.435c-0.49,0-0.89-0.401-0.89-0.89v-5.173
		c0-0.49,0.401-0.89,0.89-0.89h3.435c0.49,0,0.89,0.401,0.89,0.89V133.989z M412.757,122.066c0,0.49-0.401,0.89-0.89,0.89h-3.435
		c-0.49,0-0.89-0.401-0.89-0.89v-5.173c0-0.49,0.401-0.89,0.89-0.89h3.435c0.49,0,0.89,0.401,0.89,0.89V122.066z"/>
	<path d="M452.674,97.754V208.2h55.223V97.754H452.674z M478.344,181.685c0,0.735-0.601,1.336-1.336,1.336h-21.25
		c-0.735,0-1.336-0.601-1.336-1.336v-4.899c0-0.735,0.601-1.336,1.336-1.336h21.25c0.734,0,1.336,0.601,1.336,1.336V181.685z
		 M478.344,163.517c0,0.734-0.601,1.336-1.336,1.336h-21.25c-0.735,0-1.336-0.601-1.336-1.336v-4.899
		c0-0.734,0.601-1.336,1.336-1.336h21.25c0.734,0,1.336,0.601,1.336,1.336V163.517z M478.344,145.349
		c0,0.735-0.601,1.336-1.336,1.336h-21.25c-0.735,0-1.336-0.601-1.336-1.336v-4.899c0-0.734,0.601-1.336,1.336-1.336h21.25
		c0.734,0,1.336,0.601,1.336,1.336V145.349z M478.344,127.181c0,0.735-0.601,1.336-1.336,1.336h-21.25
		c-0.735,0-1.336-0.601-1.336-1.336v-4.899c0-0.734,0.601-1.336,1.336-1.336h21.25c0.734,0,1.336,0.601,1.336,1.336V127.181z
		 M478.344,109.013c0,0.735-0.601,1.336-1.336,1.336h-21.25c-0.735,0-1.336-0.601-1.336-1.336v-4.899
		c0-0.734,0.601-1.336,1.336-1.336h21.25c0.734,0,1.336,0.601,1.336,1.336V109.013z M506.148,181.712
		c0,0.734-0.601,1.336-1.336,1.336h-21.25c-0.734,0-1.336-0.601-1.336-1.336v-4.899c0-0.735,0.601-1.336,1.336-1.336h21.25
		c0.734,0,1.336,0.601,1.336,1.336V181.712z M506.148,163.544c0,0.734-0.601,1.336-1.336,1.336h-21.25
		c-0.734,0-1.336-0.601-1.336-1.336v-4.899c0-0.735,0.601-1.336,1.336-1.336h21.25c0.734,0,1.336,0.601,1.336,1.336V163.544z
		 M506.148,145.376c0,0.734-0.601,1.336-1.336,1.336h-21.25c-0.734,0-1.336-0.601-1.336-1.336v-4.899
		c0-0.735,0.601-1.336,1.336-1.336h21.25c0.734,0,1.336,0.601,1.336,1.336V145.376z M506.148,127.208
		c0,0.735-0.601,1.336-1.336,1.336h-21.25c-0.734,0-1.336-0.601-1.336-1.336v-4.899c0-0.735,0.601-1.336,1.336-1.336h21.25
		c0.734,0,1.336,0.601,1.336,1.336V127.208z M506.148,109.04c0,0.735-0.601,1.336-1.336,1.336h-21.25
		c-0.734,0-1.336-0.601-1.336-1.336v-4.899c0-0.734,0.601-1.336,1.336-1.336h21.25c0.734,0,1.336,0.601,1.336,1.336V109.04z"/>
	<path d="M716.403,62.086l-12.979,20.257V208.2h24.401V82.343L716.403,62.086z M723.903,205.628h-5.259V83.8h5.259V205.628z"/>
	<path d="M968.24,111.598c0-19.602-22.14-35.493-49.451-35.493s-49.451,15.89-49.451,35.493c0,0.526,0.023,1.047,0.055,1.567h-0.048
		V208.2h98.887v-95.035h-0.048C968.218,112.645,968.24,112.124,968.24,111.598z M880.57,194.115h-7.831V181.61h7.831V194.115z
		 M880.57,177.832h-7.831v-12.505h7.831V177.832z M880.57,161.549h-7.831v-12.505h7.831V161.549z M880.57,145.267h-7.831v-12.505
		h7.831V145.267z M880.57,128.983h-7.831v-12.505h7.831V128.983z M892.644,194.115h-7.831V181.61h7.831V194.115z M892.644,177.832
		h-7.831v-12.505h7.831V177.832z M892.644,161.549h-7.831v-12.505h7.831V161.549z M892.644,145.267h-7.831v-12.505h7.831V145.267z
		 M892.644,128.983h-7.831v-12.505h7.831V128.983z M904.718,194.115h-7.831V181.61h7.831V194.115z M904.718,177.832h-7.831v-12.505
		h7.831V177.832z M904.718,161.549h-7.831v-12.505h7.831V161.549z M904.718,145.267h-7.831v-12.505h7.831V145.267z M904.718,128.983
		h-7.831v-12.505h7.831V128.983z M916.791,194.115h-7.831V181.61h7.831V194.115z M916.791,177.832h-7.831v-12.505h7.831V177.832z
		 M916.791,161.549h-7.831v-12.505h7.831V161.549z M916.791,145.267h-7.831v-12.505h7.831V145.267z M916.791,128.983h-7.831v-12.505
		h7.831V128.983z M910.793,99.314c0-4.795,3.887-8.681,8.681-8.681c4.795,0,8.681,3.887,8.681,8.681
		c0,4.794-3.887,8.681-8.681,8.681C914.68,107.995,910.793,104.108,910.793,99.314z M928.865,194.115h-7.831V181.61h7.831V194.115z
		 M928.865,177.832h-7.831v-12.505h7.831V177.832z M928.865,161.549h-7.831v-12.505h7.831V161.549z M928.865,145.267h-7.831v-12.505
		h7.831V145.267z M928.865,128.983h-7.831v-12.505h7.831V128.983z M940.939,194.115h-7.831V181.61h7.831V194.115z M940.939,177.832
		h-7.831v-12.505h7.831V177.832z M940.939,161.549h-7.831v-12.505h7.831V161.549z M940.939,145.267h-7.831v-12.505h7.831V145.267z
		 M940.939,128.983h-7.831v-12.505h7.831V128.983z M953.012,194.115h-7.831V181.61h7.831V194.115z M953.012,177.832h-7.831v-12.505
		h7.831V177.832z M953.012,161.549h-7.831v-12.505h7.831V161.549z M953.012,145.267h-7.831v-12.505h7.831V145.267z M953.012,128.983
		h-7.831v-12.505h7.831V128.983z M964.797,194.115h-7.831V181.61h7.831V194.115z M964.797,177.832h-7.831v-12.505h7.831V177.832z
		 M964.797,161.549h-7.831v-12.505h7.831V161.549z M964.797,145.267h-7.831v-12.505h7.831V145.267z M964.797,128.983h-7.831v-12.505
		h7.831V128.983z"/>
	<path d="M27.468,1.25V208.2h44.746V1.25H27.468z M53.62,208.136h-8.659v-10.425h8.659V208.136z M67.511,189.582H31.856v-4.601
		h35.656V189.582z M67.511,179.805H31.856v-4.601h35.656V179.805z M67.511,170.029H31.856v-4.601h35.656V170.029z M67.511,160.252
		H31.856v-4.601h35.656V160.252z M67.511,150.476H31.856v-4.601h35.656V150.476z M67.511,140.699H31.856v-4.601h35.656V140.699z
		 M67.511,130.922H31.856v-4.601h35.656V130.922z M67.511,121.146H31.856v-4.601h35.656V121.146z M67.511,111.369H31.856v-4.601
		h35.656V111.369z M67.511,101.593H31.856v-4.601h35.656V101.593z M67.511,91.816H31.856v-4.601h35.656V91.816z M67.511,82.04
		H31.856v-4.601h35.656V82.04z M67.511,72.263H31.856v-4.601h35.656V72.263z M67.511,62.486H31.856v-4.601h35.656V62.486z
		 M67.511,52.71H31.856v-4.601h35.656V52.71z M67.511,42.933H31.856v-4.601h35.656V42.933z M67.511,33.157H31.856v-4.601h35.656
		V33.157z M67.511,23.38H31.856V18.78h35.656V23.38z M67.511,13.604H31.856V9.003h35.656V13.604z"/>
	<path d="M1097.087,154.645V208.2h69.706v-53.555H1097.087z M1156.354,200.719h-48.828v-3.889h48.828V200.719z M1156.354,193.805
		h-48.828v-3.889h48.828V193.805z M1156.354,186.892h-48.828v-3.889h48.828V186.892z M1156.354,179.978h-48.828v-3.889h48.828
		V179.978z M1156.62,171.883h-49.36c-0.029-0.222-0.045-0.445-0.045-0.67c0-6.179,11.07-11.187,24.725-11.187
		c13.655,0,24.725,5.009,24.725,11.187C1156.666,171.439,1156.649,171.662,1156.62,171.883z"/>
	<path d="M595.078,128.363l-26.951,11.575V208.2h53.731v-68.261L595.078,128.363z M579.737,162.947h-5.311v-20.52h5.311V162.947z
		 M597.696,186.003h-5.311v-20.52h5.311V186.003z M615.56,204.35h-5.311v-20.52h5.311V204.35z"/>
	<g>
		<polygon points="228.809,197.612 224.614,190.347 225.863,190.347 222.917,185.244 219.97,190.347 221.219,190.347 
			217.024,197.612 220.507,197.612 217.024,203.645 228.809,203.645 225.326,197.612 		"/>
		<rect x="221.725" y="203.671" width="2.384" height="4.529"/>
	</g>
	<g>
		<polygon points="436.347,197.612 432.153,190.347 433.401,190.347 430.455,185.244 427.508,190.347 428.757,190.347 
			424.562,197.612 428.045,197.612 424.562,203.645 436.347,203.645 432.864,197.612 		"/>
		<rect x="429.263" y="203.67" width="2.384" height="4.529"/>
	</g>
	<g>
		<polygon points="690.102,197.612 685.907,190.347 687.156,190.347 684.209,185.244 681.263,190.347 682.511,190.347 
			678.317,197.612 681.8,197.612 678.317,203.645 690.102,203.645 686.619,197.612 		"/>
		<rect x="683.017" y="203.67" width="2.384" height="4.529"/>
	</g>
	<g>
		<polygon points="859.756,197.612 855.562,190.347 856.81,190.347 853.864,185.244 850.918,190.347 852.166,190.347 
			847.971,197.612 851.455,197.612 847.971,203.645 859.756,203.645 856.273,197.612 		"/>
		<rect x="852.672" y="203.67" width="2.384" height="4.529"/>
	</g>
	<path d="M313.474,75.782v-9.239h-4.619v-7.391h-4.311v7.391h-4.619v9.239h-6.467V208.2h26.484V75.782H313.474z M316.551,198.331
		h-19.704v-2.155h19.704V198.331z M316.551,191.134h-19.704v-2.155h19.704V191.134z M316.551,183.938h-19.704v-2.155h19.704V183.938
		z M316.551,176.741h-19.704v-2.155h19.704V176.741z M316.551,169.544h-19.704v-2.155h19.704V169.544z M316.551,162.348h-19.704
		v-2.155h19.704V162.348z M316.551,155.151h-19.704v-2.155h19.704V155.151z M316.551,147.954h-19.704v-2.155h19.704V147.954z
		 M316.551,140.758h-19.704v-2.155h19.704V140.758z M316.551,133.561h-19.704v-2.155h19.704V133.561z M316.551,126.365h-19.704
		v-2.155h19.704V126.365z M316.551,119.168h-19.704v-2.155h19.704V119.168z M316.551,111.971h-19.704v-2.155h19.704V111.971z
		 M316.551,104.775h-19.704v-2.155h19.704V104.775z M316.551,97.578h-19.704v-2.155h19.704V97.578z M316.551,90.381h-19.704v-2.155
		h19.704V90.381z M316.551,83.185h-19.704V81.03h19.704V83.185z"/>
	<path d="M801.203,112.067V208.2h32.465v-96.133H801.203z M829.971,197.313H804.9v-6.916h25.071V197.313z M829.971,186.625H804.9
		v-6.916h25.071V186.625z M829.971,175.937H804.9v-6.916h25.071V175.937z M829.971,165.249H804.9v-6.916h25.071V165.249z
		 M829.971,154.56H804.9v-6.916h25.071V154.56z M829.971,143.873H804.9v-6.916h25.071V143.873z M829.971,133.184H804.9v-6.916
		h25.071V133.184z M829.971,122.496H804.9v-6.916h25.071V122.496z"/>
	<path d="M1046.244,139.525l-11.091,8.681l-11.521-8.681l-9.149,8.681V208.2h39.827v-59.993L1046.244,139.525z M1024.314,197.714
		c-2.367,0-4.285-1.918-4.285-4.285c0-2.366,1.919-4.285,4.285-4.285c2.367,0,4.285,1.919,4.285,4.285
		C1028.599,195.795,1026.68,197.714,1024.314,197.714z M1024.314,178.38c-2.367,0-4.285-1.919-4.285-4.285
		c0-2.366,1.919-4.285,4.285-4.285c2.367,0,4.285,1.919,4.285,4.285C1028.599,176.461,1026.68,178.38,1024.314,178.38z
		 M1024.314,159.046c-2.367,0-4.285-1.919-4.285-4.285c0-2.367,1.919-4.285,4.285-4.285c2.367,0,4.285,1.918,4.285,4.285
		C1028.599,157.127,1026.68,159.046,1024.314,159.046z M1044.479,197.714c-2.367,0-4.285-1.918-4.285-4.285
		c0-2.366,1.918-4.285,4.285-4.285s4.285,1.919,4.285,4.285C1048.765,195.795,1046.846,197.714,1044.479,197.714z M1044.479,178.38
		c-2.367,0-4.285-1.919-4.285-4.285c0-2.366,1.918-4.285,4.285-4.285s4.285,1.919,4.285,4.285
		C1048.765,176.461,1046.846,178.38,1044.479,178.38z M1044.479,159.046c-2.367,0-4.285-1.919-4.285-4.285
		c0-2.367,1.918-4.285,4.285-4.285s4.285,1.918,4.285,4.285C1048.765,157.127,1046.846,159.046,1044.479,159.046z"/>
	<path d="M1215.134,116.273V208.2h35.064v-91.927H1215.134z M1228.717,190.879h-8.168V180.58h8.168V190.879z M1228.717,175.903
		h-8.168v-10.299h8.168V175.903z M1228.717,160.926h-8.168v-10.299h8.168V160.926z M1228.717,145.95h-8.168v-10.299h8.168V145.95z
		 M1228.717,130.974h-8.168v-10.299h8.168V130.974z M1244.783,191.151h-8.168v-10.299h8.168V191.151z M1244.783,176.175h-8.168
		v-10.299h8.168V176.175z M1244.783,161.198h-8.168V150.9h8.168V161.198z M1244.783,146.222h-8.168v-10.299h8.168V146.222z
		 M1244.783,131.246h-8.168v-10.299h8.168V131.246z"/>
	<rect y="207.576" width="1366" height="37.497"/>
</g>
</svg>
