<?xml version="1.0" encoding="iso-8859-1"?>
<!-- Generator: Adobe Illustrator 19.0.0, SVG Export Plug-In . SVG Version: 6.00 Build 0)  -->
<svg version="1.1" xmlns="http://www.w3.org/2000/svg" xmlns:xlink="http://www.w3.org/1999/xlink" x="0px" y="0px"
	 viewBox="0 0 351.444 87.467" style="enable-background:new 0 0 351.444 87.467;" xml:space="preserve">
<g id="Layer_3">
	<g id="XMLID_54_">
		<g id="XMLID_53_">
			<g id="XMLID_111_">
				<path id="XMLID_164_" style="fill:#9F85BD;" d="M0.128,42.209c0.938,0.299,1.919,0.534,2.943,0.704
					c0.853,0.214,1.823,0.384,2.911,0.512s2.186,0.192,3.295,0.192c1.962,0,2.943-0.725,2.943-2.176
					c0-0.554-0.299-1.119-0.896-1.695c-0.598-0.576-1.355-1.216-2.271-1.92c-0.918-0.703-1.898-1.481-2.943-2.335
					c-1.046-0.853-2.026-1.834-2.943-2.943c-0.918-1.108-1.674-2.356-2.271-3.743C0.298,27.419,0,25.829,0,24.038
					c0-2.005,0.362-3.775,1.087-5.311c0.725-1.536,1.728-2.816,3.007-3.839c1.28-1.024,2.783-1.802,4.511-2.335
					c1.728-0.533,3.572-0.8,5.535-0.8c1.024,0,2.048,0.054,3.071,0.16c1.024,0.107,1.941,0.203,2.751,0.288
					c0.938,0.128,1.855,0.256,2.751,0.384V24.55c-0.342-0.042-0.726-0.085-1.152-0.128c-0.342-0.042-0.726-0.085-1.152-0.128
					c-0.427-0.042-0.875-0.064-1.343-0.064c-0.256,0-0.576,0.012-0.96,0.032c-0.384,0.022-0.747,0.075-1.088,0.16
					c-0.342,0.086-0.64,0.234-0.896,0.447c-0.256,0.215-0.384,0.513-0.384,0.896c0,0.342,0.288,0.768,0.864,1.279
					c0.576,0.512,1.28,1.109,2.112,1.792c0.832,0.683,1.749,1.472,2.751,2.367c1.001,0.896,1.919,1.92,2.751,3.071
					c0.832,1.151,1.536,2.453,2.112,3.903c0.576,1.45,0.864,3.071,0.864,4.862c0,1.878-0.299,3.638-0.896,5.279
					c-0.598,1.643-1.525,3.07-2.783,4.286c-1.259,1.216-2.87,2.176-4.831,2.88c-1.962,0.703-4.287,1.056-6.974,1.056
					c-1.622,0-3.125-0.075-4.511-0.224c-1.387-0.15-2.614-0.331-3.679-0.544c-1.238-0.214-2.368-0.47-3.391-0.769V42.209z
					 M5.502,49.887c0.597,0.128,1.237,0.234,1.919,0.319c0.597,0.086,1.226,0.16,1.888,0.225c0.661,0.063,1.333,0.096,2.016,0.096
					c1.193,0,2.356-0.138,3.487-0.416c1.13-0.276,2.144-0.735,3.04-1.376c0.896-0.64,1.609-1.46,2.144-2.463
					c0.533-1.002,0.8-2.229,0.8-3.68c0-1.236-0.31-2.409-0.928-3.519c-0.619-1.108-1.408-2.176-2.368-3.199
					s-1.983-2.005-3.071-2.943c-1.088-0.938-2.111-1.888-3.071-2.848c-0.959-0.959-1.75-1.919-2.367-2.879
					c-0.619-0.96-0.928-1.951-0.928-2.976c0-1.535,0.49-2.719,1.472-3.551c0.98-0.832,2.559-1.248,4.735-1.248
					c0.341,0,0.692,0.012,1.056,0.032c0.362,0.022,0.714,0.054,1.056,0.096c0.341,0.043,0.682,0.064,1.023,0.064V17.96
					c-0.299,0-0.619-0.021-0.959-0.064c-0.299-0.042-0.63-0.074-0.992-0.096c-0.363-0.021-0.736-0.033-1.12-0.033
					c-2.304,0-4.202,0.523-5.695,1.568c-1.494,1.046-2.239,2.678-2.239,4.895c0,1.195,0.309,2.314,0.928,3.359
					c0.618,1.046,1.408,2.069,2.367,3.071c0.96,1.003,1.983,1.974,3.071,2.911c1.088,0.938,2.111,1.888,3.071,2.848
					s1.749,1.951,2.367,2.975c0.618,1.024,0.928,2.091,0.928,3.199c0,2.048-0.694,3.605-2.08,4.671
					c-1.387,1.067-3.295,1.6-5.727,1.6c-1.451,0-2.773-0.105-3.967-0.319c-0.64-0.085-1.259-0.192-1.855-0.32V49.887z"/>
				<path id="XMLID_167_" style="fill:#BFD974;" d="M32.824,23.973h-7.87V12.776h29.817v11.197H46.9v31.48H32.824V23.973z
					 M40.694,50.335V19.43h9.15v-1.535H29.88v1.535h9.15v30.904H40.694z"/>
				<path id="XMLID_170_" style="fill:#8ED6EC;" d="M57.009,12.776h25.146v11.197H70.638v4.735h11.325V39.33H70.638v4.927h11.965
					v11.197H57.009V12.776z M77.868,50.335V48.8H65.071V34.787h12.157v-1.535H65.071V19.43h12.797v-1.535h-14.46v32.439H77.868z"/>
			</g>
			<g id="XMLID_103_">
				<g id="XMLID_106_">
					<path id="XMLID_347_" style="fill:#E98F8E;" d="M99.808,12.797L104.926,0l5.119,12.797l16.188,42.678h-15.847v31.992h-10.92
						V55.474H83.62L99.808,12.797z M93.153,50.356l1.216-3.199h21.115l1.216,3.199h1.792l-12.349-32.44h-2.431l-12.349,32.44H93.153
						z M104.926,19.451l9.982,26.17H94.945L104.926,19.451z M107.806,42.23l-2.879-7.486l-2.879,7.486H107.806z"/>
				</g>
			</g>
			<g id="XMLID_101_">
				<path id="XMLID_161_" style="fill:#FFD584;" d="M126.689,12.68h11.261l11.133,16.38l11.069-16.38h11.261v42.678h-13.628V40.002
					l-8.702,12.797l-8.766-12.797v15.356h-13.629V12.68z M134.751,50.239V20.871l14.333,20.858l14.269-20.858v29.368h1.664V17.8
					h-1.664L149.084,38.85L134.751,17.8h-1.664v32.439H134.751z"/>
			</g>
		</g>
		<g id="XMLID_100_">
			<path id="XMLID_143_" style="fill:#FCFCFD;" d="M196.612,27.186h3.154l12.018,28.268h-3.912l-2.875-6.947h-14.134l-2.915,6.947
				h-3.793L196.612,27.186z M198.13,31.498h-0.08l-5.869,13.895h11.539L198.13,31.498z"/>
			<path id="XMLID_146_" style="fill:#FCFCFD;" d="M228.273,41.44c-0.666-0.799-1.385-1.378-2.156-1.737
				c-0.772-0.359-1.624-0.539-2.555-0.539c-1.038,0-1.957,0.18-2.755,0.539c-0.799,0.359-1.458,0.858-1.977,1.497
				c-0.52,0.639-0.912,1.378-1.178,2.216c-0.267,0.839-0.399,1.737-0.399,2.695s0.152,1.856,0.459,2.695
				c0.306,0.838,0.731,1.577,1.277,2.216s1.204,1.138,1.977,1.497c0.771,0.359,1.637,0.539,2.596,0.539
				c2.049,0,3.633-0.771,4.751-2.315l2.315,2.195c-0.905,1.038-1.97,1.797-3.194,2.276c-1.225,0.479-2.515,0.719-3.872,0.719
				c-1.438,0-2.755-0.24-3.953-0.719c-1.197-0.479-2.216-1.158-3.055-2.036c-0.838-0.879-1.49-1.917-1.956-3.114
				c-0.466-1.198-0.698-2.516-0.698-3.953c0-1.41,0.232-2.715,0.698-3.913c0.466-1.197,1.124-2.235,1.977-3.114
				c0.852-0.878,1.869-1.563,3.054-2.056s2.496-0.739,3.934-0.739c1.384,0,2.694,0.24,3.933,0.719
				c1.237,0.479,2.321,1.225,3.254,2.236L228.273,41.44z"/>
			<path id="XMLID_148_" style="fill:#FCFCFD;" d="M233.983,39.164c0.958-0.984,2.097-1.71,3.414-2.176s2.655-0.699,4.013-0.699
				c2.768,0,4.764,0.653,5.988,1.957c1.225,1.305,1.837,3.287,1.837,5.949v8.024c0,0.533,0.026,1.085,0.08,1.657
				c0.053,0.572,0.119,1.098,0.199,1.577h-2.994c-0.106-0.426-0.167-0.898-0.18-1.417c-0.014-0.52-0.021-0.979-0.021-1.378h-0.079
				c-0.613,0.958-1.432,1.744-2.456,2.355c-1.024,0.612-2.256,0.919-3.693,0.919c-0.958,0-1.856-0.12-2.694-0.359
				c-0.839-0.24-1.571-0.593-2.196-1.059c-0.626-0.465-1.125-1.044-1.497-1.736c-0.373-0.692-0.559-1.49-0.559-2.396
				c0-1.544,0.398-2.755,1.197-3.634c0.799-0.878,1.79-1.53,2.975-1.956c1.184-0.426,2.462-0.692,3.833-0.799
				c1.37-0.105,2.628-0.159,3.772-0.159h1.198v-0.56c0-1.357-0.406-2.382-1.218-3.074c-0.812-0.691-1.95-1.038-3.414-1.038
				c-1.012,0-2.003,0.167-2.974,0.499c-0.973,0.333-1.831,0.846-2.576,1.537L233.983,39.164z M243.007,46.47
				c-1.996,0-3.58,0.279-4.751,0.839c-1.172,0.559-1.757,1.477-1.757,2.755c0,1.171,0.393,2.003,1.178,2.495
				c0.785,0.493,1.763,0.738,2.935,0.738c0.904,0,1.697-0.152,2.376-0.459c0.679-0.306,1.243-0.712,1.696-1.218
				c0.452-0.505,0.799-1.098,1.038-1.776s0.373-1.404,0.399-2.176V46.47H243.007z"/>
			<path id="XMLID_151_" style="fill:#FCFCFD;" d="M270.476,52.14h-0.08c-0.586,1.064-1.511,1.963-2.775,2.694
				c-1.265,0.732-2.734,1.099-4.411,1.099c-1.305,0-2.529-0.247-3.674-0.739s-2.136-1.178-2.975-2.056
				c-0.838-0.879-1.497-1.917-1.977-3.114c-0.479-1.198-0.718-2.502-0.718-3.913c0-1.41,0.239-2.715,0.718-3.913
				c0.479-1.197,1.145-2.235,1.997-3.114c0.852-0.878,1.883-1.563,3.094-2.056s2.549-0.739,4.013-0.739
				c1.357,0,2.602,0.28,3.733,0.839c1.131,0.559,2.122,1.345,2.975,2.355h0.08V25.269h3.114v30.185h-3.114V52.14z M270.476,46.111
				c0-0.984-0.154-1.896-0.46-2.735c-0.306-0.838-0.752-1.569-1.337-2.195c-0.586-0.625-1.285-1.118-2.097-1.478
				s-1.724-0.539-2.734-0.539c-1.012,0-1.924,0.18-2.735,0.539c-0.812,0.359-1.511,0.853-2.096,1.478
				c-0.586,0.626-1.032,1.357-1.338,2.195c-0.307,0.839-0.459,1.751-0.459,2.735c0,0.985,0.152,1.896,0.459,2.735
				c0.306,0.838,0.752,1.57,1.338,2.195c0.585,0.626,1.283,1.118,2.096,1.478c0.812,0.359,1.724,0.539,2.735,0.539
				c1.011,0,1.923-0.18,2.734-0.539s1.511-0.852,2.097-1.478c0.585-0.625,1.031-1.357,1.337-2.195
				C270.321,48.008,270.476,47.096,270.476,46.111z"/>
			<path id="XMLID_154_" style="fill:#FCFCFD;" d="M296.028,52.06c-1.118,1.438-2.343,2.442-3.673,3.015
				c-1.331,0.571-2.875,0.858-4.632,0.858c-1.464,0-2.781-0.26-3.952-0.779c-1.172-0.519-2.163-1.218-2.975-2.096
				c-0.812-0.879-1.438-1.917-1.877-3.114c-0.439-1.198-0.658-2.476-0.658-3.833c0-1.438,0.239-2.761,0.718-3.973
				c0.479-1.211,1.145-2.249,1.997-3.114c0.852-0.864,1.862-1.537,3.034-2.017c1.171-0.479,2.448-0.719,3.833-0.719
				c1.304,0,2.502,0.22,3.593,0.659c1.092,0.439,2.03,1.078,2.815,1.916c0.784,0.839,1.391,1.864,1.816,3.075
				s0.639,2.589,0.639,4.132v0.998h-15.092c0.053,0.799,0.246,1.564,0.579,2.296c0.332,0.732,0.765,1.371,1.297,1.917
				s1.158,0.978,1.877,1.297s1.504,0.479,2.355,0.479c1.357,0,2.502-0.239,3.434-0.719s1.771-1.184,2.516-2.116L296.028,52.06z
				 M293.354,44.434c-0.054-1.597-0.573-2.875-1.558-3.833s-2.342-1.438-4.072-1.438s-3.128,0.479-4.192,1.438
				s-1.703,2.236-1.916,3.833H293.354z"/>
			<path id="XMLID_157_" style="fill:#FCFCFD;" d="M301.537,41.2c0-0.852-0.026-1.649-0.079-2.396
				c-0.054-0.745-0.08-1.424-0.08-2.036h2.954c0,0.506,0.014,1.012,0.04,1.518s0.04,1.024,0.04,1.557h0.08
				c0.213-0.452,0.512-0.892,0.898-1.317c0.386-0.426,0.845-0.805,1.377-1.138s1.131-0.599,1.797-0.799
				c0.665-0.199,1.384-0.3,2.156-0.3c1.011,0,1.856,0.127,2.535,0.38s1.244,0.559,1.697,0.918c0.452,0.359,0.805,0.746,1.058,1.158
				c0.253,0.413,0.459,0.778,0.619,1.098c0.691-1.118,1.49-1.989,2.396-2.615c0.904-0.625,2.076-0.938,3.514-0.938
				c1.33,0,2.448,0.18,3.354,0.539c0.904,0.359,1.637,0.879,2.196,1.558c0.559,0.679,0.958,1.504,1.197,2.476
				s0.359,2.056,0.359,3.254v11.339h-3.114v-11.18c0-0.639-0.066-1.264-0.199-1.876c-0.134-0.612-0.373-1.158-0.719-1.637
				c-0.347-0.479-0.812-0.865-1.397-1.158c-0.586-0.293-1.331-0.439-2.236-0.439c-0.665,0-1.291,0.134-1.876,0.399
				c-0.586,0.267-1.099,0.639-1.537,1.118c-0.439,0.479-0.786,1.058-1.038,1.736c-0.254,0.679-0.38,1.432-0.38,2.256v10.78h-3.114
				v-10.58c0-2.076-0.279-3.547-0.838-4.412c-0.56-0.865-1.478-1.298-2.755-1.298c-1.012,0-1.884,0.174-2.615,0.52
				c-0.732,0.346-1.331,0.838-1.797,1.477c-0.466,0.64-0.812,1.397-1.038,2.276c-0.227,0.878-0.34,1.851-0.34,2.914v9.104h-3.114
				V41.2z"/>
			<path id="XMLID_159_" style="fill:#FCFCFD;" d="M342.422,59.726c-0.319,0.798-0.646,1.523-0.979,2.176
				c-0.333,0.651-0.732,1.211-1.198,1.677s-1.024,0.825-1.677,1.078s-1.444,0.379-2.375,0.379c-0.453,0-0.926-0.026-1.418-0.079
				c-0.492-0.054-0.952-0.188-1.377-0.399l0.399-2.715c0.319,0.133,0.651,0.219,0.998,0.259c0.346,0.04,0.744,0.061,1.197,0.061
				c1.012,0,1.757-0.28,2.236-0.839c0.479-0.559,0.892-1.305,1.237-2.236l1.277-3.513l-7.745-18.806h3.633l5.79,14.653h0.079
				l5.55-14.653h3.394L342.422,59.726z"/>
		</g>
	</g>
</g>
<g id="Layer_1">
</g>
</svg>
